<svg xmlns="http://www.w3.org/2000/svg" viewBox="0 0 30 30" width="360" height="360"><rect width="30" height="30" fill="#ffffff"/><path d="M9.5 6.4h11a1.3 1.3 0 0 1 1.3 1.3v15.6a1.3 1.3 0 0 1-1.3 1.3h-11a1.3 1.3 0 0 1-1.3-1.3V7.7A1.3 1.3 0 0 1 9.5 6.4z" fill="#1f7fdb"/><path d="M9.3 5.6h11a1.3 1.3 0 0 1 1.3 1.3v15.6a1.3 1.3 0 0 1-1.3 1.3h-11a1.3 1.3 0 0 1-1.3-1.3V6.9A1.3 1.3 0 0 1 9.3 5.6z" fill="#4dabf5"/><path d="M9.4 6h11a1.3 1.3 0 0 1 1.3 1.3v15.6a1.3 1.3 0 0 1-1.3 1.3h-11a1.3 1.3 0 0 1-1.3-1.3V7.3A1.3 1.3 0 0 1 9.4 6z" fill="#2196f3"/><path d="M11.5 2.4h7v3.6h-7zm0 24h7v3.2h-7z" fill="#2196f3"/><path d="M10.4 8.4h9.2v8h-9.2z" fill="#ffffff"/><path d="M15 10.6 a3.8 1.4 0 1 0 0.01 0 z M15 11 a3.4 1.0 0 1 1 -0.01 0 z" fill="#2196f3"/><path d="M15 12.4 a1 1 0 1 0 0.01 0 z" fill="#2196f3"/><path d="M11 18.4h8v0.9h-8zm0 2.2h8v0.9h-8z" fill="#ffffff"/><path d="M21.7 9.2h1.2v1.4h-1.2zm0 5h1.2v1.4h-1.2zm0 5h1.2v1.4h-1.2z" fill="#4dabf5"/><path d="M7.1 14.2h1.2v1.4H7.1z" fill="#4dabf5"/></svg>